<svg width="36" height="36" viewBox="0 0 36 36" fill="none" xmlns="http://www.w3.org/2000/svg">
<path d="M14.1654 18.5811L11.2831 18.5788V22.065H14.1097C14.3605 22.065 14.609 22.0371 14.8552 21.9814C15.0805 21.9326 15.2896 21.8397 15.48 21.712C15.6658 21.5842 15.8145 21.4124 15.9143 21.2103C16.0305 20.9525 16.0839 20.6715 16.0699 20.3881C16.121 19.8678 15.9259 19.3522 15.5474 18.9922C15.1479 18.6973 14.6601 18.5533 14.1654 18.5811Z" fill="#1B1B1B"/>
<path d="M13.9634 16.6696C14.3791 16.6882 14.7879 16.5628 15.1223 16.3189C15.4498 16.0286 15.6194 15.6036 15.5822 15.1693C15.5938 14.9184 15.5427 14.6699 15.4359 14.4423C15.3453 14.2611 15.2059 14.1125 15.0341 14.0103C14.8575 13.8965 14.6601 13.8198 14.4557 13.785C14.2304 13.7432 14.0028 13.7223 13.7752 13.7269H11.2831V16.6836H13.9634V16.6696Z" fill="#1B1B1B"/>
<path d="M25.2116 17.1992H25.2139C24.8586 16.8462 24.3708 16.6627 23.8738 16.6952C23.544 16.6836 23.2188 16.7556 22.9262 16.9089C22.6963 17.0366 22.4919 17.2062 22.3246 17.4105C22.176 17.6033 22.0692 17.8216 22.0018 18.0562C21.9414 18.2513 21.9043 18.4511 21.8903 18.6555H25.7737C25.7388 18.1259 25.5461 17.6196 25.2209 17.1992H25.2116Z" fill="#1B1B1B"/>
<path d="M18 0.000488281C8.05703 0.000488281 0 8.05984 0 18.0005C0 27.9411 8.05703 36.0005 18 36.0005C27.943 36.0005 36 27.9411 36 18.0005C36 8.05984 27.943 0.000488281 18 0.000488281ZM21.384 12.3961H26.2498V13.641H21.384V12.3961ZM18.3554 22.1997C18.137 22.6503 17.8119 23.0475 17.4101 23.3494C16.999 23.649 16.5321 23.872 16.0374 24.0067C15.5264 24.1484 14.9992 24.2204 14.465 24.2204H8.64V11.5576H14.2978C14.825 11.5484 15.3523 11.6064 15.8679 11.7249C16.3022 11.8201 16.7133 11.9943 17.0826 12.2428C17.424 12.4913 17.6911 12.8211 17.863 13.2067C18.0604 13.6782 18.1556 14.1845 18.1417 14.6978C18.1649 15.2598 18.0209 15.8149 17.7283 16.2957C17.424 16.7486 17.0013 17.1109 16.5019 17.3432C17.1755 17.5244 17.7608 17.9401 18.1533 18.5138C18.5295 19.1223 18.7223 19.8284 18.7014 20.546C18.713 21.1174 18.5946 21.6818 18.353 22.2044H18.3554V22.1997ZM28.1752 20.2325H21.9019C21.8508 20.8758 22.0529 21.5146 22.4617 22.0116C22.8797 22.3995 23.4418 22.5992 24.0108 22.5644C24.4568 22.5736 24.8934 22.4389 25.2581 22.1788C25.5507 21.986 25.776 21.7027 25.8921 21.3706H27.9941C27.7711 22.3158 27.223 23.1473 26.4472 23.728C25.704 24.2204 24.8261 24.4712 23.9365 24.4457C23.3001 24.4549 22.6661 24.3342 22.0761 24.0926C21.5396 23.8697 21.0612 23.5329 20.6733 23.1078C20.2831 22.6619 19.9858 22.1417 19.793 21.5819C19.5793 20.9548 19.4725 20.2952 19.4818 19.6333C19.4772 18.9806 19.5886 18.3349 19.8046 17.7195C20.4039 15.9473 22.0761 14.7628 23.9458 14.786C24.6193 14.7721 25.2836 14.93 25.8805 15.2436C26.4194 15.5386 26.8839 15.952 27.2415 16.4513C27.6039 16.9762 27.8663 17.5662 28.008 18.1886C28.1683 18.8575 28.224 19.5473 28.1752 20.2325Z" fill="#1B1B1B"/>
</svg>
