<svg width="36" height="36" viewBox="0 0 36 36" fill="none" xmlns="http://www.w3.org/2000/svg">
<path d="M18 14.9566C16.3208 14.9566 14.9574 16.3205 14.9574 18.0005C14.9574 19.6805 16.3208 21.042 18 21.0443C19.6792 21.0443 21.0426 19.6805 21.0426 18.0005C21.0426 16.3205 19.6792 14.9566 18 14.9566Z" fill="#1B1B1B"/>
<path d="M25.1164 12.6189C24.8098 11.8228 24.1804 11.1905 23.3814 10.8836C22.8379 10.6851 22.2666 10.5789 21.6883 10.572H21.6859C20.7244 10.5282 20.4364 10.519 18.0023 10.519C15.5683 10.519 15.2756 10.5282 14.3187 10.572C13.7404 10.5789 13.1644 10.6828 12.6209 10.8836C11.8243 11.1905 11.1925 11.8205 10.8859 12.6189C10.6839 13.1636 10.5794 13.7336 10.5747 14.3128C10.5306 15.2728 10.5213 15.5613 10.5213 17.9959C10.5213 20.4305 10.5306 20.7213 10.5747 21.6813C10.5817 22.2628 10.6862 22.8374 10.8859 23.382C11.1925 24.1782 11.8219 24.8105 12.6209 25.1174C13.1644 25.3182 13.7357 25.422 14.3141 25.429C15.2756 25.4728 15.5636 25.482 17.9977 25.482C20.4317 25.482 20.7244 25.4728 21.6813 25.429C22.2619 25.422 22.8379 25.3182 23.3814 25.1174C24.1781 24.8105 24.8098 24.1805 25.1164 23.382C25.3185 22.8374 25.423 22.2674 25.4276 21.6882C25.4717 20.7282 25.481 20.4397 25.481 18.0051C25.481 15.5705 25.4717 15.2797 25.4276 14.3197C25.4206 13.7382 25.3161 13.1636 25.1164 12.6189ZM18 22.6897C15.4103 22.6897 13.3107 20.5897 13.3107 18.0005C13.3107 15.4113 15.4103 13.3113 18 13.3113C20.5897 13.3113 22.6893 15.4113 22.6893 18.0005C22.6893 20.5897 20.5897 22.6897 18 22.6897ZM22.8705 14.2251C22.2666 14.2251 21.7765 13.7336 21.7765 13.1313C21.7765 12.529 22.2666 12.0374 22.8705 12.0374C23.4743 12.0374 23.9644 12.529 23.9644 13.1313C23.9644 13.7336 23.4743 14.2251 22.8705 14.2251Z" fill="#1B1B1B"/>
<path d="M18 0.000488281C8.05935 0.000488281 0 8.05895 0 18.0005C0 27.942 8.05935 36.0005 18 36.0005C27.9406 36.0005 36 27.942 36 18.0005C36 8.05895 27.9383 0.000488281 18 0.000488281ZM27.0697 21.7597C27.0557 22.5166 26.9117 23.2666 26.647 23.9751C26.1732 25.1982 25.2023 26.1697 23.9783 26.6428C23.2699 26.9082 22.5221 27.0559 21.7672 27.072C20.7964 27.1182 20.4828 27.1274 18.0046 27.1274C15.5265 27.1274 15.2152 27.1182 14.2421 27.072C13.4849 27.0582 12.7347 26.9151 12.0286 26.6474C10.8046 26.172 9.83381 25.2028 9.36 23.9797C9.0929 23.2713 8.9489 22.5236 8.93264 21.7689C8.88619 20.7974 8.8769 20.4836 8.8769 18.0051C8.8769 15.5266 8.88619 15.2174 8.93264 14.2413C8.94658 13.4843 9.09058 12.7343 9.35535 12.0259C9.82916 10.7982 10.7977 9.82664 12.024 9.35357C12.7324 9.08818 13.4803 8.9451 14.2351 8.93126C15.2129 8.8851 15.5241 8.87587 18.0023 8.87587C20.4805 8.87587 20.7917 8.8851 21.7649 8.93126C22.5221 8.9451 23.2723 9.08818 23.9806 9.35357C25.2046 9.82895 26.1755 10.7982 26.6493 12.0213C26.9164 12.7297 27.0581 13.4774 27.072 14.232C27.1185 15.2036 27.1277 15.5174 27.1277 17.9959C27.1277 20.4743 27.1185 20.7836 27.072 21.7597H27.0697Z" fill="#1B1B1B"/>
</svg>
