<svg width="148" height="18" viewBox="0 0 148 18" fill="none" xmlns="http://www.w3.org/2000/svg">
<path d="M0 1.41051H6.94117C11.655 1.41051 14.6275 4.50401 14.6275 9.60107C14.6275 14.6981 11.8413 17.7676 6.94117 17.7676H0V1.41051ZM3.15066 4.12734V15.0588H6.75488C9.58967 15.0588 11.2905 13.1273 11.2905 9.561C11.2905 6.21906 9.72736 4.12734 6.75488 4.12734H3.15066Z" fill="#1B1B1B"/>
<path d="M14.9758 14.3856C14.9758 12.0053 16.6766 10.8433 19.0092 10.4346L21.7954 9.93767C22.9051 9.76135 23.2209 9.32858 23.2209 8.59127C23.2209 7.62956 22.5892 7.02048 21.0017 7.02048C19.3251 7.02048 18.3289 7.71772 18.3451 9.15227L15.4455 8.81567C15.4455 6.23509 17.6648 4.72841 21.0503 4.72841C24.6302 4.72841 26.3311 6.16296 26.3311 8.74354V14.5779C26.3311 15.3874 26.6956 15.5637 27.1248 15.5637C27.3273 15.5637 27.4407 15.5396 27.4893 15.4996H27.627V17.6794C27.2382 17.8557 26.5579 17.9519 26.1286 17.9519C24.7193 17.9519 23.7717 17.3428 23.634 16.0926L23.6097 15.7801C22.9051 17.1745 21.2528 18 19.2765 18C16.5794 18 14.9677 16.5414 14.9677 14.3856H14.9758ZM23.3019 13.6883V11.6447C22.9617 11.805 22.4839 11.9172 21.7792 12.0454L20.0298 12.382C18.58 12.6705 18.1507 13.3437 18.1507 14.1131C18.1507 15.171 18.9688 15.7079 20.2161 15.7079C21.8035 15.7079 22.986 14.9706 23.3019 13.6883Z" fill="#1B1B1B"/>
<path d="M28.283 4.96082H31.1664L31.3041 6.75601C32.3246 5.3455 33.5962 4.73642 35.3376 4.73642C37.9699 4.73642 39.7356 6.2431 39.7356 9.16029V17.7756H36.6092V9.60908C36.6092 8.23865 35.7912 7.42921 34.2766 7.42921C32.762 7.42921 31.4904 8.48709 31.4175 10.1861V17.7676H28.2911V4.96082H28.283Z" fill="#1B1B1B"/>
<path d="M40.7237 14.3856C40.7237 12.0053 42.4246 10.8433 44.7572 10.4346L47.5434 9.93767C48.653 9.76135 48.9689 9.32858 48.9689 8.59127C48.9689 7.62956 48.3371 7.02048 46.7496 7.02048C45.0731 7.02048 44.0768 7.71772 44.093 9.15227L41.1935 8.81567C41.1935 6.23509 43.4127 4.72841 46.7982 4.72841C50.3782 4.72841 52.079 6.16296 52.079 8.74354V14.5779C52.079 15.3874 52.4435 15.5637 52.8728 15.5637C53.0752 15.5637 53.1886 15.5396 53.2372 15.4996H53.3749V17.6794C52.9862 17.8557 52.3058 17.9519 51.8765 17.9519C50.4673 17.9519 49.5196 17.3428 49.3819 16.0926L49.3576 15.7801C48.653 17.1745 47.0007 18 45.0245 18C42.3274 18 40.7156 16.5414 40.7156 14.3856H40.7237ZM49.0499 13.6883V11.6447C48.7097 11.805 48.2318 11.9172 47.5272 12.0454L45.7777 12.382C44.3279 12.6705 43.8987 13.3437 43.8987 14.1131C43.8987 15.171 44.7167 15.7079 45.964 15.7079C47.5515 15.7079 48.734 14.9706 49.0499 13.6883Z" fill="#1B1B1B"/>
<path d="M58.024 1.41051H66.1234C69.5008 1.41051 71.3151 3.14159 71.3151 5.60997C71.3151 7.29297 70.4322 8.61532 68.5046 9.28851C70.6347 9.82547 71.7929 11.3081 71.7929 13.2395C71.7929 15.9964 69.5737 17.7756 65.9857 17.7756H58.024V1.41051ZM61.1746 8.16652H65.4592C67.2735 8.16652 68.0186 7.33304 68.0186 6.09884C68.0186 4.68834 66.9981 4.03117 65.4592 4.03117H61.1746V8.16652ZM61.1746 10.6589V15.1229H65.5321C67.4841 15.1229 68.4155 14.3375 68.4155 12.8789C68.4155 11.4203 67.5326 10.6589 65.5321 10.6589H61.1746Z" fill="#1B1B1B"/>
<path d="M72.287 14.3856C72.287 12.0053 73.9879 10.8433 76.3205 10.4346L79.1067 9.93767C80.2163 9.76135 80.5322 9.32858 80.5322 8.59127C80.5322 7.62956 79.9004 7.02048 78.3129 7.02048C76.6364 7.02048 75.6401 7.71772 75.6563 9.15227L72.7568 8.81567C72.7568 6.23509 74.976 4.72841 78.3615 4.72841C81.9414 4.72841 83.6423 6.16296 83.6423 8.74354V14.5779C83.6423 15.3874 84.0068 15.5637 84.4361 15.5637C84.6385 15.5637 84.7519 15.5396 84.8005 15.4996H84.9382V17.6794C84.5495 17.8557 83.8691 17.9519 83.4398 17.9519C82.0305 17.9519 81.0829 17.3428 80.9452 16.0926L80.9209 15.7801C80.2163 17.1745 78.564 18 76.5878 18C73.8907 18 72.2789 16.5414 72.2789 14.3856H72.287ZM80.6131 13.6883V11.6447C80.273 11.805 79.7951 11.9172 79.0905 12.0454L77.341 12.382C75.8912 12.6705 75.4619 13.3437 75.4619 14.1131C75.4619 15.171 76.28 15.7079 77.5273 15.7079C79.1148 15.7079 80.2973 14.9706 80.6131 13.6883Z" fill="#1B1B1B"/>
<path d="M88.7287 0.0480855V9.92164L93.6936 4.96082H97.6137L92.6245 9.6732L98.0187 17.7756H94.3011L90.4701 11.7409L88.7206 13.3758V17.7756H85.5943V0.0480855H88.7287Z" fill="#1B1B1B"/>
<path d="M98.3184 0.0480855H101.445V6.55566C102.441 5.27338 103.664 4.69635 105.365 4.69635C107.997 4.69635 109.763 6.21906 109.763 9.13624V17.7756H106.636V9.58504C106.636 8.2146 105.818 7.40517 104.304 7.40517C102.789 7.40517 101.518 8.46305 101.445 10.1621V17.7676H98.3184V0.0480855Z" fill="#1B1B1B"/>
<path d="M111.925 15.2591V7.18077L110.249 7.22885V4.96082L111.925 5.0089V1.52271L115.011 1.29831V5.00089L117.141 4.95281V7.22084L115.011 7.15672V14.1772C115.011 15.1229 115.189 15.3633 116.032 15.3633C116.485 15.3633 116.874 15.2992 117.117 15.203V17.6233C116.461 17.8237 115.594 17.9359 114.898 17.9359C112.881 17.9359 111.925 17.0383 111.925 15.2431V15.2591Z" fill="#1B1B1B"/>
<path d="M118.113 4.96082H121.223V17.7756H118.113V4.96082ZM118.138 0H121.223V3.05343H118.138V0Z" fill="#1B1B1B"/>
<path d="M122.908 4.96082H125.791L125.929 6.75601C126.95 5.3455 128.221 4.73642 129.963 4.73642C132.595 4.73642 134.361 6.2431 134.361 9.16029V17.7756H131.234V9.60908C131.234 8.23865 130.416 7.42921 128.902 7.42921C127.387 7.42921 126.115 8.48709 126.043 10.1861V17.7676H122.916V4.96082H122.908Z" fill="#1B1B1B"/>
<path d="M135.349 14.3856C135.349 12.0053 137.05 10.8433 139.382 10.4346L142.168 9.93767C143.278 9.76135 143.594 9.32858 143.594 8.59127C143.594 7.62956 142.962 7.02048 141.375 7.02048C139.698 7.02048 138.702 7.71772 138.718 9.15227L135.819 8.81567C135.819 6.23509 138.038 4.72841 141.423 4.72841C145.003 4.72841 146.704 6.16296 146.704 8.74354V14.5779C146.704 15.3874 147.069 15.5637 147.498 15.5637C147.7 15.5637 147.814 15.5396 147.862 15.4996H148V17.6794C147.611 17.8557 146.931 17.9519 146.502 17.9519C145.092 17.9519 144.145 17.3428 144.007 16.0926L143.983 15.7801C143.278 17.1745 141.626 18 139.65 18C136.952 18 135.341 16.5414 135.341 14.3856H135.349ZM143.675 13.6883V11.6447C143.335 11.805 142.857 11.9172 142.152 12.0454L140.403 12.382C138.953 12.6705 138.524 13.3437 138.524 14.1131C138.524 15.171 139.342 15.7079 140.589 15.7079C142.177 15.7079 143.359 14.9706 143.675 13.6883Z" fill="#1B1B1B"/>
</svg>
