<svg width="36" height="36" viewBox="0 0 36 36" fill="none" xmlns="http://www.w3.org/2000/svg">
<path d="M16.9846 15.304C15.4869 15.9241 14.7762 17.6405 15.3969 19.1386C16.0177 20.6366 17.7346 21.3473 19.23 20.7272C20.7277 20.1071 21.4385 18.3907 20.8177 16.8926C20.1969 15.3946 18.48 14.6838 16.9846 15.304Z" fill="#1B1B1B"/>
<path d="M18 0.000488281C8.05846 0.000488281 0 8.05984 0 18.0005C0 27.9411 8.05846 36.0005 18 36.0005C27.9415 36.0005 36 27.9411 36 18.0005C36 8.05984 27.9415 0.000488281 18 0.000488281ZM27.7246 18.0144C27.7246 21.3241 26.1762 22.8686 24.2308 22.8686C23.1438 22.8686 22.1285 22.3112 21.5515 21.3891C19.6823 23.289 16.6246 23.3122 14.7254 21.4402C12.8262 19.5706 12.8031 16.514 14.6746 14.6142C16.5438 12.7143 19.6015 12.6911 21.5008 14.5631C22.4238 15.4735 22.9431 16.7161 22.9408 18.0144V19.5938C22.9408 20.3927 23.5038 20.9548 24.2331 20.9548C25.1008 20.9548 25.8046 20.2255 25.8046 18.0214C25.8277 13.7502 22.3823 10.2686 18.1108 10.2454C13.8392 10.2222 10.3592 13.6689 10.3362 17.9401C10.3131 22.2113 13.7585 25.6929 18.03 25.7161C19.5231 25.7231 20.9862 25.3004 22.2415 24.4967L23.5062 25.953C21.9092 27.0423 20.0215 27.6206 18.0877 27.6137C12.7731 27.602 8.47846 23.2867 8.49 17.9726C8.50154 12.6586 12.8169 8.3641 18.1315 8.37571C23.4438 8.38733 27.7408 12.7027 27.7292 18.0167H27.7269L27.7246 18.0144Z" fill="#1B1B1B"/>
</svg>
