<svg width="44" height="44" viewBox="0 0 44 44" fill="none" xmlns="http://www.w3.org/2000/svg">
<path d="M22 0C9.86972 0 0 9.86972 0 22C0 34.1303 9.86972 44 22 44C34.1303 44 44 34.1303 44 22C44 9.86972 34.1303 0 22 0ZM22 41.3089C11.3566 41.3089 2.69113 32.6502 2.69113 22C2.69113 11.3498 11.3498 2.69113 22 2.69113C32.6502 2.69113 41.3089 11.3498 41.3089 22C41.3089 32.6502 32.6502 41.3089 22 41.3089Z" fill="#CCCCCC"/>
<path d="M23.3456 20.6544V8.1474H20.6544V20.6544H8.1474V23.3456H20.6544V35.8526H23.3456V23.3456H35.8526V20.6544H23.3456Z" fill="#CCCCCC"/>
</svg>
