<svg width="36" height="36" viewBox="0 0 36 36" fill="none" xmlns="http://www.w3.org/2000/svg">
<path d="M10.8524 24.3005C9.24872 22.4831 8.44692 20.383 8.44692 18.0005C8.44692 17.9394 8.45077 17.863 8.45836 17.7714C8.46176 17.7307 8.46438 17.6929 8.46626 17.6582C8.46863 17.6149 8.46983 17.5762 8.46983 17.5423C8.76004 17.5576 9.20292 17.5652 9.79855 17.5652C12.8531 17.5652 15.6938 17.1452 18.3207 16.3052C18.5345 16.7329 18.756 17.214 18.9851 17.7485C17.4731 18.0845 15.9229 18.9015 14.3345 20.1998C12.7462 21.498 11.5855 22.8648 10.8524 24.3005Z" fill="#1B1B1B"/>
<path d="M10.2338 15.6867C9.57705 15.6867 9.08076 15.6714 8.74472 15.6409C9.09597 14.3274 9.70307 13.1285 10.566 12.0441C11.4289 10.9598 12.4636 10.1122 13.6702 9.50121C15.06 10.8758 16.3352 12.5939 17.496 14.6558C15.2051 15.343 12.7843 15.6867 10.2338 15.6867Z" fill="#1B1B1B"/>
<path d="M18 27.5536C15.8312 27.5536 13.884 26.8816 12.1582 25.5376C12.8454 24.1783 13.9031 22.8801 15.3311 21.643C16.7591 20.406 18.1757 19.6346 19.5807 19.3292C20.4666 21.7729 21.0622 24.3005 21.3676 26.9121C20.2527 27.3398 19.1302 27.5536 18 27.5536Z" fill="#1B1B1B"/>
<path d="M19.3975 13.9685C18.252 11.8914 17.0073 10.158 15.6633 8.76812C16.4422 8.55433 17.2211 8.44741 18 8.44741C20.2909 8.44741 22.3222 9.18049 24.0938 10.6467C23.04 11.9907 21.4746 13.0979 19.3975 13.9685Z" fill="#1B1B1B"/>
<path d="M21.0011 17.4507C20.7109 16.7023 20.4513 16.0837 20.2222 15.595C22.5894 14.5565 24.2695 13.2965 25.2622 11.815C26.6367 13.434 27.3851 15.2819 27.5073 17.359C26.5756 17.3132 25.6363 17.2903 24.6894 17.2903C23.3607 17.2903 22.1313 17.3437 21.0011 17.4507Z" fill="#1B1B1B"/>
<path d="M23.1546 26.0187C22.8796 23.6361 22.3528 21.3147 21.5738 19.0543C22.643 18.978 23.5974 18.9397 24.4375 18.9397C25.3538 18.9397 26.3694 18.978 27.4844 19.0543C27.3316 20.4747 26.8734 21.7958 26.1098 23.0176C25.3462 24.2394 24.3611 25.2398 23.1546 26.0187Z" fill="#1B1B1B"/>
<path fill-rule="evenodd" clip-rule="evenodd" d="M0 18.0005C0 8.05752 8.05703 0.000488281 18 0.000488281C27.9429 0.000488281 36 8.05983 36 18.0005C36 27.9411 27.9429 36.0005 18 36.0005C8.05703 36.0005 0 27.9435 0 18.0005ZM8.08037 12.2503C7.05705 14.0067 6.54545 15.9234 6.54545 18.0005C6.54545 20.0776 7.05705 21.9943 8.08037 23.7507C9.10367 25.5071 10.4934 26.8968 12.2498 27.9201C14.0062 28.9434 15.9229 29.455 18 29.455C20.0771 29.455 21.9938 28.9434 23.7502 27.9201C25.5066 26.8968 26.8964 25.5071 27.9197 23.7507C28.943 21.9943 29.4545 20.0776 29.4545 18.0005C29.4545 15.9234 28.943 14.0067 27.9197 12.2503C26.8964 10.4939 25.5066 9.10416 23.7502 8.08086C21.9938 7.05753 20.077 6.54594 18 6.54594C15.923 6.54594 14.0062 7.05753 12.2498 8.08086C10.4934 9.10416 9.10367 10.4939 8.08037 12.2503Z" fill="#1B1B1B"/>
<path fill-rule="evenodd" clip-rule="evenodd" d="M6.54545 18.0005C6.54545 15.9234 7.05705 14.0067 8.08037 12.2503C9.10367 10.4939 10.4934 9.10416 12.2498 8.08086C14.0062 7.05753 15.923 6.54594 18 6.54594C20.077 6.54594 21.9938 7.05753 23.7502 8.08086C25.5066 9.10416 26.8964 10.4939 27.9197 12.2503C28.943 14.0067 29.4545 15.9234 29.4545 18.0005C29.4545 20.0776 28.943 21.9943 27.9197 23.7507C26.8964 25.5071 25.5066 26.8968 23.7502 27.9201C21.9938 28.9434 20.0771 29.455 18 29.455C15.9229 29.455 14.0062 28.9434 12.2498 27.9201C10.4934 26.8968 9.10367 25.5071 8.08037 23.7507C7.05705 21.9943 6.54545 20.0776 6.54545 18.0005ZM10.8524 24.3005C9.24872 22.4831 8.44692 20.383 8.44692 18.0005C8.44692 17.9394 8.45077 17.863 8.45836 17.7714C8.46176 17.7307 8.46438 17.6929 8.46626 17.6582C8.46863 17.6149 8.46983 17.5762 8.46983 17.5423C8.76004 17.5576 9.20292 17.5652 9.79855 17.5652C12.8531 17.5652 15.6938 17.1452 18.3207 16.3052C18.5345 16.7329 18.756 17.214 18.9851 17.7485C17.4731 18.0845 15.9229 18.9015 14.3345 20.1998C12.7462 21.498 11.5855 22.8648 10.8524 24.3005ZM10.2338 15.6867C9.57705 15.6867 9.08076 15.6714 8.74472 15.6409C9.09597 14.3274 9.70307 13.1285 10.566 12.0441C11.4289 10.9598 12.4636 10.1122 13.6702 9.50121C15.06 10.8758 16.3352 12.5939 17.496 14.6558C15.2051 15.343 12.7843 15.6867 10.2338 15.6867ZM18 27.5536C15.8312 27.5536 13.884 26.8816 12.1582 25.5376C12.8454 24.1783 13.9031 22.8801 15.3311 21.643C16.7591 20.406 18.1757 19.6346 19.5807 19.3292C20.4666 21.7729 21.0622 24.3005 21.3676 26.9121C20.2527 27.3398 19.1302 27.5536 18 27.5536ZM19.3975 13.9685C18.252 11.8914 17.0073 10.158 15.6633 8.76812C16.4422 8.55433 17.2211 8.44741 18 8.44741C20.2909 8.44741 22.3222 9.18049 24.0938 10.6467C23.04 11.9907 21.4746 13.0979 19.3975 13.9685ZM21.0011 17.4507C20.7109 16.7023 20.4513 16.0837 20.2222 15.595C22.5894 14.5565 24.2695 13.2965 25.2622 11.815C26.6367 13.434 27.3851 15.2819 27.5073 17.359C26.5756 17.3132 25.6363 17.2903 24.6894 17.2903C23.3607 17.2903 22.1313 17.3437 21.0011 17.4507ZM23.1546 26.0187C22.8796 23.6361 22.3528 21.3147 21.5738 19.0543C22.643 18.978 23.5974 18.9397 24.4375 18.9397C25.3538 18.9397 26.3694 18.978 27.4844 19.0543C27.3316 20.4747 26.8734 21.7958 26.1098 23.0176C25.3462 24.2394 24.3611 25.2398 23.1546 26.0187Z" fill="white"/>
</svg>
