<svg width="36" height="36" viewBox="0 0 36 36" fill="none" xmlns="http://www.w3.org/2000/svg">
<path d="M18 0.000488281C8.05703 0.000488281 0 8.05895 0 18.0005C0 27.942 8.05703 36.0005 18 36.0005C27.943 36.0005 36 27.942 36 18.0005C36 8.05895 27.943 0.000488281 18 0.000488281ZM26.4077 12.1366C26.1383 14.9843 24.9677 21.8636 24.3732 25.0436C24.12 26.3843 23.6253 26.8389 23.1468 26.8851C22.1063 26.9797 21.305 26.1951 20.2994 25.5328C18.72 24.4966 17.8258 23.8574 16.2952 22.842C14.5208 21.672 15.6728 21.0328 16.6808 19.9828C16.9456 19.7082 21.5373 15.529 21.6255 15.1505C21.6488 15.0374 21.6186 14.9197 21.5419 14.8343C21.4328 14.7651 21.2934 14.7513 21.1703 14.7997C21.0124 14.8343 18.4877 16.5028 13.5987 19.8051C12.881 20.299 12.233 20.5366 11.6524 20.5251C11.0114 20.509 9.77807 20.1628 8.86065 19.8559C7.73884 19.489 6.85161 19.2974 6.92129 18.6859C6.96309 18.3651 7.40671 18.0351 8.25677 17.6959C13.4919 15.4159 16.9827 13.9113 18.727 13.1866C23.7135 11.112 24.7541 10.7543 25.423 10.7405C25.6715 10.7359 25.9177 10.8097 26.1197 10.9482C26.2637 11.0705 26.3566 11.2436 26.3776 11.4351C26.4147 11.6682 26.424 11.9082 26.4077 12.1436V12.1366Z" fill="#1B1B1B"/>
</svg>
